  0
SECTION
  2
HEADER
  9
$ACADVER
  1
AC1015
  9
$ACADMAINTVER
 70
     6
  9
$DWGCODEPAGE
  3
ANSI_1252
  9
$INSBASE
 10
0.0
 20
0.0
 30
0.0
  9
$EXTMIN
 10
-1.0572327384
 20
-0.75
 30
0.0
  9
$EXTMAX
 10
1.0454927078
 20
1.8261012995
 30
0.0
  9
$LIMMIN
 10
0.0
 20
0.0
  9
$LIMMAX
 10
12.0
 20
9.0
  9
$ORTHOMODE
 70
     0
  9
$REGENMODE
 70
     1
  9
$FILLMODE
 70
     1
  9
$QTEXTMODE
 70
     0
  9
$MIRRTEXT
 70
     1
  9
$LTSCALE
 40
1.0
  9
$ATTMODE
 70
     1
  9
$TEXTSIZE
 40
0.1377952756
  9
$TRACEWID
 40
0.05
  9
$TEXTSTYLE
  7
Standard
  9
$CLAYER
  8
0
  9
$CELTYPE
  6
ByLayer
  9
$CECOLOR
 62
   256
  9
$CELTSCALE
 40
1.0
  9
$DISPSILH
 70
     0
  9
$DIMSCALE
 40
1.0
  9
$DIMASZ
 40
0.13
  9
$DIMEXO
 40
0.0
  9
$DIMDLI
 40
0.38
  9
$DIMRND
 40
0.0
  9
$DIMDLE
 40
0.0
  9
$DIMEXE
 40
0.0393700787
  9
$DIMTP
 40
0.0
  9
$DIMTM
 40
0.0
  9
$DIMTXT
 40
0.1377952756
  9
$DIMCEN
 40
0.09
  9
$DIMTSZ
 40
0.0
  9
$DIMTOL
 70
     0
  9
$DIMLIM
 70
     0
  9
$DIMTIH
 70
     1
  9
$DIMTOH
 70
     1
  9
$DIMSE1
 70
     0
  9
$DIMSE2
 70
     0
  9
$DIMTAD
 70
     1
  9
$DIMZIN
 70
     1
  9
$DIMBLK
  1

  9
$DIMASO
 70
     1
  9
$DIMSHO
 70
     1
  9
$DIMPOST
  1

  9
$DIMAPOST
  1

  9
$DIMALT
 70
     0
  9
$DIMALTD
 70
     2
  9
$DIMALTF
 40
25.4
  9
$DIMLFAC
 40
1.0
  9
$DIMTOFL
 70
     0
  9
$DIMTVP
 40
0.0
  9
$DIMTIX
 70
     0
  9
$DIMSOXD
 70
     0
  9
$DIMSAH
 70
     0
  9
$DIMBLK1
  1

  9
$DIMBLK2
  1

  9
$DIMSTYLE
  2
Standard
  9
$DIMCLRD
 70
     0
  9
$DIMCLRE
 70
     0
  9
$DIMCLRT
 70
     0
  9
$DIMTFAC
 40
1.0
  9
$DIMGAP
 40
0.06
  9
$DIMJUST
 70
     0
  9
$DIMSD1
 70
     0
  9
$DIMSD2
 70
     0
  9
$DIMTOLJ
 70
     1
  9
$DIMTZIN
 70
     1
  9
$DIMALTZ
 70
     0
  9
$DIMALTTZ
 70
     0
  9
$DIMUPT
 70
     0
  9
$DIMDEC
 70
     2
  9
$DIMTDEC
 70
     2
  9
$DIMALTU
 70
     2
  9
$DIMALTTD
 70
     2
  9
$DIMTXSTY
  7
Standard
  9
$DIMAUNIT
 70
     0
  9
$DIMADEC
 70
     2
  9
$DIMALTRND
 40
0.0
  9
$DIMAZIN
 70
     0
  9
$DIMDSEP
 70
    46
  9
$DIMATFIT
 70
     3
  9
$DIMFRAC
 70
     0
  9
$DIMLDRBLK
  1

  9
$DIMLUNIT
 70
     2
  9
$DIMLWD
 70
    -2
  9
$DIMLWE
 70
    -2
  9
$DIMTMOVE
 70
     0
  9
$LUNITS
 70
     2
  9
$LUPREC
 70
     2
  9
$SKETCHINC
 40
0.1
  9
$FILLETRAD
 40
0.0
  9
$AUNITS
 70
     0
  9
$AUPREC
 70
     2
  9
$MENU
  1
.
  9
$ELEVATION
 40
0.0
  9
$PELEVATION
 40
0.0
  9
$THICKNESS
 40
0.0
  9
$LIMCHECK
 70
     0
  9
$CHAMFERA
 40
0.0
  9
$CHAMFERB
 40
0.0
  9
$CHAMFERC
 40
0.0
  9
$CHAMFERD
 40
0.0
  9
$SKPOLY
 70
     0
  9
$TDCREATE
 40
2460732.766200081
  9
$TDUCREATE
 40
2460733.099533415
  9
$TDUPDATE
 40
2460732.766226632
  9
$TDUUPDATE
 40
2460733.099559965
  9
$TDINDWG
 40
0.0000000116
  9
$TDUSRTIMER
 40
0.0000000116
  9
$USRTIMER
 70
     1
  9
$ANGBASE
 50
0.0
  9
$ANGDIR
 70
     0
  9
$PDMODE
 70
     0
  9
$PDSIZE
 40
-1.0
  9
$PLINEWID
 40
0.0
  9
$SPLFRAME
 70
     0
  9
$SPLINETYPE
 70
     6
  9
$SPLINESEGS
 70
     8
  9
$HANDSEED
  5
7B
  9
$SURFTAB1
 70
     6
  9
$SURFTAB2
 70
     6
  9
$SURFTYPE
 70
     6
  9
$SURFU
 70
     6
  9
$SURFV
 70
     6
  9
$UCSBASE
  2

  9
$UCSNAME
  2

  9
$UCSORG
 10
0.0
 20
0.0
 30
0.0
  9
$UCSXDIR
 10
1.0
 20
0.0
 30
0.0
  9
$UCSYDIR
 10
0.0
 20
1.0
 30
0.0
  9
$UCSORTHOREF
  2

  9
$UCSORTHOVIEW
 70
     0
  9
$UCSORGTOP
 10
0.0
 20
0.0
 30
0.0
  9
$UCSORGBOTTOM
 10
0.0
 20
0.0
 30
0.0
  9
$UCSORGLEFT
 10
0.0
 20
0.0
 30
0.0
  9
$UCSORGRIGHT
 10
0.0
 20
0.0
 30
0.0
  9
$UCSORGFRONT
 10
0.0
 20
0.0
 30
0.0
  9
$UCSORGBACK
 10
0.0
 20
0.0
 30
0.0
  9
$PUCSBASE
  2

  9
$PUCSNAME
  2

  9
$PUCSORG
 10
0.0
 20
0.0
 30
0.0
  9
$PUCSXDIR
 10
1.0
 20
0.0
 30
0.0
  9
$PUCSYDIR
 10
0.0
 20
1.0
 30
0.0
  9
$PUCSORTHOREF
  2

  9
$PUCSORTHOVIEW
 70
     0
  9
$PUCSORGTOP
 10
0.0
 20
0.0
 30
0.0
  9
$PUCSORGBOTTOM
 10
0.0
 20
0.0
 30
0.0
  9
$PUCSORGLEFT
 10
0.0
 20
0.0
 30
0.0
  9
$PUCSORGRIGHT
 10
0.0
 20
0.0
 30
0.0
  9
$PUCSORGFRONT
 10
0.0
 20
0.0
 30
0.0
  9
$PUCSORGBACK
 10
0.0
 20
0.0
 30
0.0
  9
$USERI1
 70
     0
  9
$USERI2
 70
     0
  9
$USERI3
 70
     0
  9
$USERI4
 70
     0
  9
$USERI5
 70
     0
  9
$USERR1
 40
0.0
  9
$USERR2
 40
0.0
  9
$USERR3
 40
0.0
  9
$USERR4
 40
0.0
  9
$USERR5
 40
0.0
  9
$WORLDVIEW
 70
     1
  9
$SHADEDGE
 70
     3
  9
$SHADEDIF
 70
    70
  9
$TILEMODE
 70
     1
  9
$MAXACTVP
 70
    64
  9
$PINSBASE
 10
0.0
 20
0.0
 30
0.0
  9
$PLIMCHECK
 70
     0
  9
$PEXTMIN
 10
1.0000000000E+20
 20
1.0000000000E+20
 30
1.0000000000E+20
  9
$PEXTMAX
 10
-1.0000000000E+20
 20
-1.0000000000E+20
 30
-1.0000000000E+20
  9
$PLIMMIN
 10
0.0
 20
0.0
  9
$PLIMMAX
 10
12.0
 20
9.0
  9
$UNITMODE
 70
     0
  9
$VISRETAIN
 70
     1
  9
$PLINEGEN
 70
     0
  9
$PSLTSCALE
 70
     1
  9
$TREEDEPTH
 70
  3020
  9
$CMLSTYLE
  2
Standard
  9
$CMLJUST
 70
     0
  9
$CMLSCALE
 40
1.0
  9
$PROXYGRAPHICS
 70
     1
  9
$MEASUREMENT
 70
     0
  9
$CELWEIGHT
370
    -1
  9
$ENDCAPS
280
     0
  9
$JOINSTYLE
280
     0
  9
$LWDISPLAY
290
     1
  9
$INSUNITS
 70
     1
  9
$HYPERLINKBASE
  1

  9
$STYLESHEET
  1

  9
$XEDIT
290
     1
  9
$CEPSNTYPE
380
     0
  9
$PSTYLEMODE
290
     1
  9
$FINGERPRINTGUID
  2
{9e7bcaa4-6b58-413a-9e42-6a69593a4568}
  9
$VERSIONGUID
  2
{FAEB1C32-E019-11D5-929B-00C0DF256EC4}
  9
$EXTNAMES
290
     1
  9
$PSVPSCALE
 40
0.0
  9
$OLESTARTUP
290
     0
  0
ENDSEC
  0
SECTION
  2
CLASSES
  0
CLASS
  1
ACDBDICTIONARYWDFLT
  2
AcDbDictionaryWithDefault
  3
ObjectDBX Classes
 90
        0
280
     0
281
     0
  0
CLASS
  1
VISUALSTYLE
  2
AcDbVisualStyle
  3
ObjectDBX Classes
 90
     4095
280
     0
281
     0
  0
CLASS
  1
MATERIAL
  2
AcDbMaterial
  3
ObjectDBX Classes
 90
     1153
280
     0
281
     0
  0
CLASS
  1
SCALE
  2
AcDbScale
  3
ObjectDBX Classes
 90
     1153
280
     0
281
     0
  0
CLASS
  1
TABLESTYLE
  2
AcDbTableStyle
  3
ObjectDBX Classes
 90
     4095
280
     0
281
     0
  0
CLASS
  1
MLEADERSTYLE
  2
AcDbMLeaderStyle
  3
ACDB_MLEADERSTYLE_CLASS
 90
     4095
280
     0
281
     0
  0
CLASS
  1
SUN
  2
AcDbSun
  3
SCENEOE
 90
     1153
280
     0
281
     0
  0
CLASS
  1
ACDBPLACEHOLDER
  2
AcDbPlaceHolder
  3
ObjectDBX Classes
 90
        0
280
     0
281
     0
  0
CLASS
  1
LAYOUT
  2
AcDbLayout
  3
ObjectDBX Classes
 90
        0
280
     0
281
     0
  0
ENDSEC
  0
SECTION
  2
TABLES
  0
TABLE
  2
VPORT
  5
8
330
0
100
AcDbSymbolTable
 70
     1
  0
VPORT
  5
29
330
8
100
AcDbSymbolTableRecord
100
AcDbViewportTableRecord
  2
*Active
 70
     0
 10
0.0
 20
0.0
 11
1.0
 21
1.0
 12
-0.0058700153
 22
0.5380506497
 13
0.0
 23
0.0
 14
0.5
 24
0.5
 15
0.5
 25
0.5
 16
0.0
 26
0.0
 36
1.0
 17
0.0
 27
0.0
 37
0.0
 40
2.6276233255
 41
0.8162433079
 42
50.0
 43
0.0
 44
0.0
 50
0.0
 51
0.0
 71
     0
 72
   100
 73
     1
 74
     3
 75
     0
 76
     0
 77
     0
 78
     0
281
     0
 65
     1
110
0.0
120
0.0
130
0.0
111
1.0
121
0.0
131
0.0
112
0.0
122
1.0
132
0.0
 79
     0
146
0.0
  0
ENDTAB
  0
TABLE
  2
LTYPE
  5
5
330
0
100
AcDbSymbolTable
 70
     6
  0
LTYPE
  5
14
330
5
100
AcDbSymbolTableRecord
100
AcDbLinetypeTableRecord
  2
ByBlock
 70
     0
  3

 72
    65
 73
     0
 40
0.0
  0
LTYPE
  5
15
330
5
100
AcDbSymbolTableRecord
100
AcDbLinetypeTableRecord
  2
ByLayer
 70
     0
  3

 72
    65
 73
     0
 40
0.0
  0
LTYPE
  5
16
330
5
100
AcDbSymbolTableRecord
100
AcDbLinetypeTableRecord
  2
Continuous
 70
     0
  3
Solid line
 72
    65
 73
     0
 40
0.0
  0
LTYPE
  5
5E
330
5
100
AcDbSymbolTableRecord
100
AcDbLinetypeTableRecord
  2
HIDDEN
 70
     0
  3
Hidden __ __ __ __ __ __ __ __ __ __ __ __ __ __
 72
    65
 73
     2
 40
0.075
 49
0.05
 74
     0
 49
-0.025
 74
     0
  0
LTYPE
  5
5F
330
5
100
AcDbSymbolTableRecord
100
AcDbLinetypeTableRecord
  2
PHANTOM
 70
     0
  3
Phantom ______  __  __  ______  __  __  ______
 72
    65
 73
     6
 40
0.5
 49
0.25
 74
     0
 49
-0.05
 74
     0
 49
0.05
 74
     0
 49
-0.05
 74
     0
 49
0.05
 74
     0
 49
-0.05
 74
     0
  0
LTYPE
  5
60
330
5
100
AcDbSymbolTableRecord
100
AcDbLinetypeTableRecord
  2
CENTER
 70
     0
  3
Center ____ _ ____ _ ____ _ ____ _ ____ _ ____
 72
    65
 73
     4
 40
0.4
 49
0.25
 74
     0
 49
-0.05
 74
     0
 49
0.05
 74
     0
 49
-0.05
 74
     0
  0
LTYPE
  5
61
330
5
100
AcDbSymbolTableRecord
100
AcDbLinetypeTableRecord
  2
CENTERX2
 70
     0
  3
Center (2x) ________  __  ________  __  _____
 72
    65
 73
     4
 40
0.8
 49
0.5
 74
     0
 49
-0.1
 74
     0
 49
0.1
 74
     0
 49
-0.1
 74
     0
  0
LTYPE
  5
62
330
5
100
AcDbSymbolTableRecord
100
AcDbLinetypeTableRecord
  2
DOT2
 70
     0
  3
Dot (.5x) ........................................
 72
    65
 73
     2
 40
0.025
 49
0.0
 74
     0
 49
-0.025
 74
     0
  0
ENDTAB
  0
TABLE
  2
LAYER
  5
2
330
0
100
AcDbSymbolTable
 70
     1
  0
LAYER
  5
10
330
2
100
AcDbSymbolTableRecord
100
AcDbLayerTableRecord
  2
0
 70
     0
 62
     7
  6
Continuous
370
    -3
390
F
  0
ENDTAB
  0
TABLE
  2
STYLE
  5
3
330
0
100
AcDbSymbolTable
 70
     2
  0
STYLE
  5
11
330
3
100
AcDbSymbolTableRecord
100
AcDbTextStyleTableRecord
  2
Standard
 70
     0
 40
0.0
 41
1.0
 50
0.0
 71
     0
 42
0.1377952756
  3
txt
  4

  0
STYLE
  5
77
330
3
100
AcDbSymbolTableRecord
100
AcDbTextStyleTableRecord
  2
SLDTEXTSTYLE0
 70
     0
 40
0.0
 41
0.7
 50
0.0
 71
     0
 42
0.1377952756
  3
TXT
  4

  0
ENDTAB
  0
TABLE
  2
VIEW
  5
6
330
0
100
AcDbSymbolTable
 70
     0
  0
ENDTAB
  0
TABLE
  2
UCS
  5
7
330
0
100
AcDbSymbolTable
 70
     0
  0
ENDTAB
  0
TABLE
  2
APPID
  5
9
330
0
100
AcDbSymbolTable
 70
     1
  0
APPID
  5
12
330
9
100
AcDbSymbolTableRecord
100
AcDbRegAppTableRecord
  2
ACAD
 70
     0
  0
ENDTAB
  0
TABLE
  2
DIMSTYLE
  5
A
330
0
100
AcDbSymbolTable
 70
     1
100
AcDbDimStyleTable
  0
DIMSTYLE
105
27
330
A
100
AcDbSymbolTableRecord
100
AcDbDimStyleTableRecord
  2
Standard
 70
     0
178
     0
340
11
  0
ENDTAB
  0
TABLE
  2
BLOCK_RECORD
  5
1
330
0
100
AcDbSymbolTable
 70
     1
  0
BLOCK_RECORD
  5
1F
330
1
100
AcDbSymbolTableRecord
100
AcDbBlockTableRecord
  2
*Model_Space
340
22
  0
BLOCK_RECORD
  5
1B
330
1
100
AcDbSymbolTableRecord
100
AcDbBlockTableRecord
  2
*Paper_Space
340
1E
  0
BLOCK_RECORD
  5
23
330
1
100
AcDbSymbolTableRecord
100
AcDbBlockTableRecord
  2
*Paper_Space0
340
26
  0
ENDTAB
  0
ENDSEC
  0
SECTION
  2
BLOCKS
  0
BLOCK
  5
20
330
1F
100
AcDbEntity
  8
0
100
AcDbBlockBegin
  2
*Model_Space
 70
     0
 10
0.0
 20
0.0
 30
0.0
  3
*Model_Space
  1

  0
ENDBLK
  5
21
330
1F
100
AcDbEntity
  8
0
100
AcDbBlockEnd
  0
BLOCK
  5
1C
330
1B
100
AcDbEntity
 67
     1
  8
0
100
AcDbBlockBegin
  2
*Paper_Space
 70
     0
 10
0.0
 20
0.0
 30
0.0
  3
*Paper_Space
  1

  0
ENDBLK
  5
1D
330
1B
100
AcDbEntity
 67
     1
  8
0
100
AcDbBlockEnd
  0
BLOCK
  5
24
330
23
100
AcDbEntity
  8
0
100
AcDbBlockBegin
  2
*Paper_Space0
 70
     0
 10
0.0
 20
0.0
 30
0.0
  3
*Paper_Space0
  1

  0
ENDBLK
  5
25
330
23
100
AcDbEntity
  8
0
100
AcDbBlockEnd
  0
ENDSEC
  0
SECTION
  2
ENTITIES
  0
CIRCLE
  5
63
330
1F
100
AcDbEntity
  8
0
  6
Continuous
 62
     7
370
    25
100
AcDbCircle
 10
0.0
 20
0.0
 30
0.0
 40
0.2500000000000002
  0
SPLINE
  5
69
330
1F
100
AcDbEntity
  8
0
  6
Continuous
 62
     7
370
    25
100
AcDbSpline
210
0.0
220
0.0
230
1.0
 70
     8
 71
     3
 72
    18
 73
    14
 74
     0
 42
0.00000001
 43
0.00000001
 40
0.0
 40
0.0
 40
0.0
 40
0.0
 40
0.0862612403103508
 40
0.165240313859778
 40
0.2374226040492719
 40
0.3034435738596533
 40
0.3641325380280615
 40
0.4205544200278097
 40
0.474029682012966
 40
0.5836236704642647
 40
0.7019845673843977
 40
0.8373947816484815
 40
1.0
 40
1.0
 40
1.0
 40
1.0
 10
-0.9603876885946615
 20
1.818081097137235
 30
0.0
 10
-0.9625438348191658
 20
1.819105237667775
 30
0.0
 10
-0.966674105582522
 20
1.821067060870111
 30
0.0
 10
-0.9728352185016101
 20
1.823366426452674
 30
0.0
 10
-0.9786225032577561
 20
1.825007011371904
 30
0.0
 10
-0.9840530845175107
 20
1.825958291141887
 30
0.0
 10
-0.9891263413329743
 20
1.826224517139159
 30
0.0
 10
-0.9938444340407763
 20
1.825789995369538
 30
0.0
 10
-0.9997470643630286
 20
1.824271981070682
 30
0.0
 10
-1.006613844578164
 20
1.820115871691797
 30
0.0
 10
-1.012523997978518
 20
1.811731275681757
 30
0.0
 10
-1.016293469677102
 20
1.800714264008201
 30
0.0
 10
-1.017055186994523
 20
1.792483393757778
 30
0.0
 10
-1.017470800406333
 20
1.787992410044128
 30
0.0
  0
SPLINE
  5
6A
330
1F
100
AcDbEntity
  8
0
  6
Continuous
 62
     7
370
    25
100
AcDbSpline
210
0.0
220
0.0
230
1.0
 70
     8
 71
     3
 72
   213
 73
   209
 74
     0
 42
0.00000001
 43
0.00000001
 40
0.1877351695340154
 40
0.1877351695340154
 40
0.1877351695340154
 40
0.1877351695340154
 40
0.1883673284348157
 40
0.1930426305370752
 40
0.1977148983132772
 40
0.2023840595665217
 40
0.2070500422566974
 40
0.2117127745023645
 40
0.2163721845852209
 40
0.221028200953902
 40
0.2256807522262119
 40
0.2303297671935747
 40
0.2349751748244463
 40
0.2396169042679531
 40
0.2442548848559735
 40
0.2488890461084841
 40
0.2535193177353615
 40
0.2581456296405608
 40
0.2627679119254364
 40
0.2673860948917338
 40
0.2720001090457033
 40
0.2766098850999067
 40
0.2812153539779333
 40
0.2858164468175178
 40
0.2904130949728038
 40
0.2950052300184175
 40
0.2995927837528428
 40
0.3041756882004045
 40
0.3087538756161026
 40
0.3133272784872708
 40
0.3178958295380919
 40
0.3224594617312837
 40
0.3270181082717405
 40
0.3315717026105461
 40
0.3361201784463279
 40
0.3406634697294437
 40
0.3452015106649395
 40
0.3497342357146042
 40
0.3542615796015124
 40
0.3587834773108408
 40
0.3632998640949046
 40
0.3678106754744914
 40
0.372315847242471
 40
0.3768153154663144
 40
0.3813090164913092
 40
0.3857968869432184
 40
0.3902788637297029
 40
0.3947548840458959
 40
0.399224885374362
 40
0.4036888054891972
 40
0.4081465824583857
 40
0.412598154646262
 40
0.4170434607166231
 40
0.4214824396345864
 40
0.4259150306694615
 40
0.4303411733977049
 40
0.4347608077049854
 40
0.4391738737883549
 40
0.4435803121593823
 40
0.4479800636465596
 40
0.4523730693965977
 40
0.4567592708780532
 40
0.461138609883348
 40
0.4655110285305166
 40
0.4698764692666224
 40
0.4742348748688466
 40
0.478586188446694
 40
0.4829303534458026
 40
0.4872673136479432
 40
0.4915970131748033
 40
0.4959193964893037
 40
0.5002344083981871
 40
0.5045419940536199
 40
0.5088420989550554
 40
0.5131346689518161
 40
0.5174196502450499
 40
0.5216969893888963
 40
0.5259666332938675
 40
0.5302285292266076
 40
0.5344826248140189
 40
0.538728868042912
 40
0.5429672072641991
 40
0.5471975911924306
 40
0.5514199689085365
 40
0.5556342898618927
 40
0.5598405038710789
 40
0.5640385611263178
 40
0.5682284121905748
 40
0.5724100080014966
 40
0.5765832998728418
 40
0.5807482394958866
 40
0.5849047789408631
 40
0.5890528706588268
 40
0.5931924674828593
 40
0.5973235226292337
 40
0.6014459896992495
 40
0.6055598226799785
 40
0.6096649759460042
 40
0.61376140426143
 40
0.617849062779052
 40
0.6219279070437099
 40
0.6259978929923541
 40
0.6300589769558047
 40
0.6341111156586801
 40
0.6381542662222854
 40
0.6421883861647336
 40
0.6462134334014046
 40
0.6502293662469883
 40
0.6542361434160994
 40
0.6582337240239671
 40
0.6622220675876751
 40
0.6662011340269379
 40
0.6701708836646376
 40
0.6741312772285127
 40
0.678082275850946
 40
0.6820238410706905
 40
0.6859559348324232
 40
0.6898785194888364
 40
0.6937915577998901
 40
0.6976950129347421
 40
0.7015888484716304
 40
0.705473028398705
 40
0.7093475171140721
 40
0.7132122794274974
 40
0.7170672805593545
 40
0.7209124861425634
 40
0.7247478622223543
 40
0.7285733752557287
 40
0.7323889921143131
 40
0.7361946800821894
 40
0.7399904068569594
 40
0.7437761405510943
 40
0.7475518496913568
 40
0.7513175032183184
 40
0.7550730704881568
 40
0.7588185212715253
 40
0.7625538257543487
 40
0.7662789545377836
 40
0.7699938786381302
 40
0.7736985694873717
 40
0.7773929989326986
 40
0.7810771392366298
 40
0.7847509630772732
 40
0.7884144435483365
 40
0.7920675541580379
 40
0.7957102688304495
 40
0.7993425619046362
 40
0.8029644081343026
 40
0.8065757826879753
 40
0.8101766611486737
 40
0.8137670195135832
 40
0.8173468341943084
 40
0.8209160820155481
 40
0.8244747402158193
 40
0.8280227864465672
 40
0.8315601987718002
 40
0.8350869556680528
 40
0.8386030360236931
 40
0.842108419138191
 40
0.8456030847225252
 40
0.8490870128976055
 40
0.8525601841948314
 40
0.8560225795543983
 40
0.8594741803257047
 40
0.8629149682666035
 40
0.8663449255418844
 40
0.8697640347239299
 40
0.8731722787913979
 40
0.8765696411281569
 40
0.8799561055234559
 40
0.8833316561705675
 40
0.8866962776661906
 40
0.8900499550095773
 40
0.8933926736019959
 40
0.896724419245975
 40
0.9000451781436345
 40
0.9033549368969429
 40
0.9066536825058964
 40
0.9099414023682243
 40
0.9132180842784681
 40
0.9164837164264421
 40
0.9197382873967682
 40
0.9229817861676548
 40
0.9262142021102299
 40
0.9294355249868738
 40
0.9326457449508014
 40
0.9358448525447592
 40
0.939032838699806
 40
0.9422096947340377
 40
0.9453754123522088
 40
0.9485299836434817
 40
0.9516734010817499
 40
0.954805657522857
 40
0.9579267462041552
 40
0.9610366607436853
 40
0.9641353951377678
 40
0.9672229437613334
 40
0.9702993013652788
 40
0.9733644630757852
 40
0.9764184243927316
 40
0.97946118118917
 40
0.9824927297085223
 40
0.9855130665648255
 40
0.9885221887403685
 40
0.9915200935844374
 40
0.9945067788124503
 40
0.9974822425034643
 40
0.9997100842657335
 40
0.9997100842657335
 40
0.9997100842657335
 40
0.9997100842657335
 10
-0.0848360903075704
 20
1.5805219528142
 30
0.0
 10
-0.0850707415113966
 20
1.580551084035539
 30
0.0
 10
-0.0870407967654381
 20
1.580795843378189
 30
0.0
 10
-0.0907447784989089
 20
1.581258916142201
 30
0.0
 10
-0.0959462096393091
 20
1.581916360868803
 30
0.0
 10
-0.1011432867119892
 20
1.582580416894284
 30
0.0
 10
-0.1063359205705366
 20
1.583251068035348
 30
0.0
 10
-0.1115240222759938
 20
1.583928297897823
 30
0.0
 10
-0.1167075031008862
 20
1.584612089877593
 30
0.0
 10
-0.1218862745333802
 20
1.585302427161562
 30
0.0
 10
-0.1270602482814301
 20
1.585999292728635
 30
0.0
 10
-0.13222933627678
 20
1.58670266935069
 30
0.0
 10
-0.1373934506794853
 20
1.58741253959364
 30
0.0
 10
-0.1425525038815519
 20
1.588128885818387
 30
0.0
 10
-0.1477064085112902
 20
1.588851690181893
 30
0.0
 10
-0.1528550774369869
 20
1.589580934638168
 30
0.0
 10
-0.157998423771349
 20
1.590316600939373
 30
0.0
 10
-0.1631363608751966
 20
1.591058670636859
 30
0.0
 10
-0.1682688023615926
 20
1.591807125082245
 30
0.0
 10
-0.1733956620999453
 20
1.592561945428544
 30
0.0
 10
-0.1785168542195494
 20
1.593323112631191
 30
0.0
 10
-0.1836322931137607
 20
1.594090607449205
 30
0.0
 10
-0.1887418934437994
 20
1.594864410446291
 30
0.0
 10
-0.1938455701427214
 20
1.595644501991992
 30
0.0
 10
-0.1989432384191463
 20
1.596430862262816
 30
0.0
 10
-0.2040348137610802
 20
1.597223471243398
 30
0.0
 10
-0.20912021193963
 20
1.598022308727645
 30
0.0
 10
-0.2141993490129969
 20
1.598827354319957
 30
0.0
 10
-0.2192721413298327
 20
1.599638587436347
 30
0.0
 10
-0.2243385055335263
 20
1.600455987305739
 30
0.0
 10
-0.2293983585653289
 20
1.601279532971077
 30
0.0
 10
-0.2344516176682027
 20
1.602109203290579
 30
0.0
 10
-0.2394982003904852
 20
1.602944976938968
 30
0.0
 10
-0.2445380245894269
 20
1.603786832408699
 30
0.0
 10
-0.249571008434925
 20
1.604634748011228
 30
0.0
 10
-0.2545970704128683
 20
1.605488701878247
 30
0.0
 10
-0.2596161293287333
 20
1.606348671962946
 30
0.0
 10
-0.2646281043113123
 20
1.607214636041343
 30
0.0
 10
-0.2696329148156443
 20
1.608086571713468
 30
0.0
 10
-0.274630480627046
 20
1.608964456404763
 30
0.0
 10
-0.2796207218639547
 20
1.60984826736729
 30
0.0
 10
-0.2846035589817967
 20
1.610737981681115
 30
0.0
 10
-0.2895789127759268
 20
1.611633576255575
 30
0.0
 10
-0.2945467043852555
 20
1.612535027830643
 30
0.0
 10
-0.2995068552955235
 20
1.613442312978275
 30
0.0
 10
-0.30445928734217
 20
1.614355408103674
 30
0.0
 10
-0.3094039227140641
 20
1.615274289446746
 30
0.0
 10
-0.3143406839562395
 20
1.616198933083362
 30
0.0
 10
-0.319269493973614
 20
1.617129314926839
 30
0.0
 10
-0.3241902760335159
 20
1.618065410729197
 30
0.0
 10
-0.3291029537691343
 20
1.619007196082611
 30
0.0
 10
-0.3340074511825967
 20
1.619954646420799
 30
0.0
 10
-0.338903692647864
 20
1.62090773702039
 30
0.0
 10
-0.3437916029137696
 20
1.621866443002343
 30
0.0
 10
-0.3486711071069999
 20
1.622830739333348
 30
0.0
 10
-0.3535421307351434
 20
1.623800600827272
 30
0.0
 10
-0.3584045996894837
 20
1.624776002146557
 30
0.0
 10
-0.3632584402478503
 20
1.625756917803646
 30
0.0
 10
-0.3681035790775929
 20
1.626743322162446
 30
0.0
 10
-0.372939943238232
 20
1.627735189439739
 30
0.0
 10
-0.3777674601842838
 20
1.628732493706634
 30
0.0
 10
-0.3825860577679424
 20
1.629735208890021
 30
0.0
 10
-0.3873956642419222
 20
1.630743308774041
 30
0.0
 10
-0.3921962082622197
 20
1.631756767001586
 30
0.0
 10
-0.3969876188905306
 20
1.632775557075711
 30
0.0
 10
-0.4017698255968322
 20
1.633799652361108
 30
0.0
 10
-0.4065427582621037
 20
1.634829026085619
 30
0.0
 10
-0.4113063471806471
 20
1.635863651341669
 30
0.0
 10
-0.4160605230629782
 20
1.636903501087845
 30
0.0
 10
-0.4208052170378059
 20
1.63794854815028
 30
0.0
 10
-0.4255403606549495
 20
1.638998765224257
 30
0.0
 10
-0.43026588588746
 20
1.640054124875657
 30
0.0
 10
-0.4349817251339315
 20
1.641114599542441
 30
0.0
 10
-0.4396878112208127
 20
1.642180161536171
 30
0.0
 10
-0.4443840774048381
 20
1.643250783043544
 30
0.0
 10
-0.449070457375205
 20
1.644326436127893
 30
0.0
 10
-0.4537468852560355
 20
1.64540709273077
 30
0.0
 10
-0.4584132956080357
 20
1.64649272467334
 30
0.0
 10
-0.4630696234312257
 20
1.647583303658049
 30
0.0
 10
-0.4677158041663142
 20
1.648678801269972
 30
0.0
 10
-0.4723517736976727
 20
1.649779188978572
 30
0.0
 10
-0.4769774683546476
 20
1.650884438139043
 30
0.0
 10
-0.4815928249139817
 20
1.651994519993961
 30
0.0
 10
-0.4861977806014653
 20
1.653109405674745
 30
0.0
 10
-0.4907922730940262
 20
1.654229066203229
 30
0.0
 10
-0.4953762405217023
 20
1.655353472493234
 30
0.0
 10
-0.4999496214692635
 20
1.656482595352047
 30
0.0
 10
-0.5045123549782561
 20
1.657616405482029
 30
0.0
 10
-0.5090643805486764
 20
1.658754873482131
 30
0.0
 10
-0.5136056381407519
 20
1.659897969849453
 30
0.0
 10
-0.5181360681765397
 20
1.661045664980769
 30
0.0
 10
-0.5226556115416728
 20
1.662197929174087
 30
0.0
 10
-0.5271642095870372
 20
1.663354732630227
 30
0.0
 10
-0.5316618041303381
 20
1.664516045454346
 30
0.0
 10
-0.536148337457655
 20
1.665681837657508
 30
0.0
 10
-0.5406237523248264
 20
1.666852079158183
 30
0.0
 10
-0.545087991959037
 20
1.668026739783839
 30
0.0
 10
-0.549541000060464
 20
1.669205789272543
 30
0.0
 10
-0.5539827208033524
 20
1.670389197274417
 30
0.0
 10
-0.5584130988376649
 20
1.671576933353278
 30
0.0
 10
-0.5628320792900294
 20
1.672768966988071
 30
0.0
 10
-0.5672396077656157
 20
1.673965267574586
 30
0.0
 10
-0.5716356303487723
 20
1.675165804426828
 30
0.0
 10
-0.5760200936046768
 20
1.676370546778691
 30
0.0
 10
-0.5803929445803915
 20
1.677579463785467
 30
0.0
 10
-0.5847541308061087
 20
1.678792524525414
 30
0.0
 10
-0.5891036002960811
 20
1.680009698001257
 30
0.0
 10
-0.5934413015497345
 20
1.681230953141738
 30
0.0
 10
-0.5977671835528501
 20
1.682456258803198
 30
0.0
 10
-0.602081195778462
 20
1.683685583771088
 30
0.0
 10
-0.6063832881878023
 20
1.6849188967615
 30
0.0
 10
-0.6106734112311926
 20
1.686156166422691
 30
0.0
 10
-0.6149515158490868
 20
1.687397361336668
 30
0.0
 10
-0.6192175534727595
 20
1.688642450020654
 30
0.0
 10
-0.6234714760254164
 20
1.689891400928724
 30
0.0
 10
-0.6277132359225304
 20
1.691144182453175
 30
0.0
 10
-0.6319427860730059
 20
1.692400762926195
 30
0.0
 10
-0.6361600798794479
 20
1.693661110621238
 30
0.0
 10
-0.6403650712392794
 20
1.694925193754676
 30
0.0
 10
-0.6445577145450656
 20
1.696192980487223
 30
0.0
 10
-0.6487379646853968
 20
1.697464438925525
 30
0.0
 10
-0.6529057770450913
 20
1.698739537123559
 30
0.0
 10
-0.6570611075060523
 20
1.700018243084238
 30
0.0
 10
-0.6612039124474381
 20
1.701300524760806
 30
0.0
 10
-0.665334148746512
 20
1.702586350058455
 30
0.0
 10
-0.6694517737787922
 20
1.703875686835739
 30
0.0
 10
-0.6735567454183833
 20
1.705168502906033
 30
0.0
 10
-0.6776490220386242
 20
1.706464766039114
 30
0.0
 10
-0.6817285625120535
 20
1.707764443962531
 30
0.0
 10
-0.6857953262109285
 20
1.709067504363146
 30
0.0
 10
-0.6898492730072174
 20
1.710373914888528
 30
0.0
 10
-0.6938903632731453
 20
1.711683643148524
 30
0.0
 10
-0.6979185578811887
 20
1.712996656716651
 30
0.0
 10
-0.701933818204227
 20
1.714312923131569
 30
0.0
 10
-0.7059361061154892
 20
1.715632409898454
 30
0.0
 10
-0.7099253839889561
 20
1.716955084490572
 30
0.0
 10
-0.713901614699101
 20
1.718280914350603
 30
0.0
 10
-0.7178647616210023
 20
1.719609866892114
 30
0.0
 10
-0.7218147886303545
 20
1.720941909500997
 30
0.0
 10
-0.7257516601033256
 20
1.722277009536862
 30
0.0
 10
-0.7296753409164837
 20
1.723615134334458
 30
0.0
 10
-0.7335857964466189
 20
1.72495625120507
 30
0.0
 10
-0.737482992570738
 20
1.726300327437967
 30
0.0
 10
-0.7413668956656201
 20
1.727647330301714
 30
0.0
 10
-0.7452374726077592
 20
1.728997227045626
 30
0.0
 10
-0.7490946907729892
 20
1.730349984901101
 30
0.0
 10
-0.7529385180363667
 20
1.731705571083068
 30
0.0
 10
-0.7567689227716407
 20
1.733063952791271
 30
0.0
 10
-0.7605858738509068
 20
1.734425097211653
 30
0.0
 10
-0.7643893406442641
 20
1.735788971517708
 30
0.0
 10
-0.7681792930194971
 20
1.737155542871881
 30
0.0
 10
-0.7719557013413991
 20
1.738524778426823
 30
0.0
 10
-0.7757185364714662
 20
1.739896645326783
 30
0.0
 10
-0.7794677697671821
 20
1.741271110708877
 30
0.0
 10
-0.783203373081638
 20
1.742648141704447
 30
0.0
 10
-0.7869253187628793
 20
1.744027705440358
 30
0.0
 10
-0.7906335796533245
 20
1.745409769040308
 30
0.0
 10
-0.7943281290890436
 20
1.746794299626089
 30
0.0
 10
-0.7980089408991925
 20
1.748181264318915
 30
0.0
 10
-0.8016759894051355
 20
1.749570630240631
 30
0.0
 10
-0.8053292494200123
 20
1.750962364515102
 30
0.0
 10
-0.8089686962475686
 20
1.752356434269308
 30
0.0
 10
-0.8125943056816771
 20
1.753752806634728
 30
0.0
 10
-0.8162060540053985
 20
1.75515144874853
 30
0.0
 10
-0.8198039179900996
 20
1.756552327754795
 30
0.0
 10
-0.8233878748946526
 20
1.757955410805779
 30
0.0
 10
-0.8269579024644409
 20
1.759360665063092
 30
0.0
 10
-0.830513978930509
 20
1.76076805769894
 30
0.0
 10
-0.8340560830085472
 20
1.762177555897309
 30
0.0
 10
-0.8375841938978523
 20
1.763589126855131
 30
0.0
 10
-0.8410982912804583
 20
1.76500273778353
 30
0.0
 10
-0.8445983553198898
 20
1.766418355908915
 30
0.0
 10
-0.8480843666602045
 20
1.767835948474183
 30
0.0
 10
-0.8515563064249725
 20
1.769255482739916
 30
0.0
 10
-0.8550141562159809
 20
1.770676925985446
 30
0.0
 10
-0.8584578981122072
 20
1.77210024551005
 30
0.0
 10
-0.8618875146684243
 20
1.773525408633983
 30
0.0
 10
-0.8653029889142722
 20
1.774952382699704
 30
0.0
 10
-0.8687043043529246
 20
1.776381135072951
 30
0.0
 10
-0.8720914449598478
 20
1.777811633143827
 30
0.0
 10
-0.8754643951814973
 20
1.779243844327894
 30
0.0
 10
-0.8788231399339095
 20
1.780677736067196
 30
0.0
 10
-0.8821676646015866
 20
1.782113275831417
 30
0.0
 10
-0.8854979550359732
 20
1.783550431118868
 30
0.0
 10
-0.8888139975541955
 20
1.784989169457583
 30
0.0
 10
-0.8921157789375889
 20
1.786429458406324
 30
0.0
 10
-0.8954032864303713
 20
1.787871265555653
 30
0.0
 10
-0.8986765077380178
 20
1.789314558528863
 30
0.0
 10
-0.9019354310259567
 20
1.790759304983069
 30
0.0
 10
-0.9051800449179033
 20
1.792205472610108
 30
0.0
 10
-0.9084103384947376
 20
1.793653029137721
 30
0.0
 10
-0.911626301292562
 20
1.795101942330329
 30
0.0
 10
-0.9148279233013743
 20
1.796552179990103
 30
0.0
 10
-0.918015194963332
 20
1.798003709957886
 30
0.0
 10
-0.9211881071712159
 20
1.799456500114003
 30
0.0
 10
-0.924346651266859
 20
1.800910518379807
 30
0.0
 10
-0.9274908190400564
 20
1.802365732716684
 30
0.0
 10
-0.9306206027239681
 20
1.80382211113365
 30
0.0
 10
-0.9337359950050377
 20
1.8052796216638
 30
0.0
 10
-0.9368369889773392
 20
1.806738232455476
 30
0.0
 10
-0.9399235783051154
 20
1.808197911438668
 30
0.0
 10
-0.9429957566105643
 20
1.80965862756685
 30
0.0
 10
-0.9460535197387154
 20
1.811120346212556
 30
0.0
 10
-0.9490968573425939
 20
1.812583046259624
 30
0.0
 10
-0.9521257841054314
 20
1.814046656673667
 30
0.0
 10
-0.9551402238601381
 20
1.815511291904728
 30
0.0
 10
-0.9578929313370061
 20
1.816855513305081
 30
0.0
 10
-0.9596397953555428
 20
1.817713609484959
 30
0.0
 10
-0.9603876885946603
 20
1.81808109713724
 30
0.0
  0
SPLINE
  5
6B
330
1F
100
AcDbEntity
  8
0
  6
Continuous
 62
     7
370
    25
100
AcDbSpline
210
0.0
220
0.0
230
1.0
 70
     8
 71
     3
 72
   268
 73
   264
 74
     0
 42
0.00000001
 43
0.00000001
 40
0.0005197404498235
 40
0.0005197404498235
 40
0.0005197404498235
 40
0.0005197404498235
 40
0.002149847089837
 40
0.0042044207417439
 40
0.0062683710322169
 40
0.0083417118506282
 40
0.0104244568518901
 40
0.012516619454799
 40
0.0146182128404354
 40
0.0167292499512253
 40
0.0188497434887796
 40
0.0209797059126063
 40
0.0231191494390634
 40
0.0252680860389998
 40
0.0274265274371038
 40
0.0295944851099723
 40
0.031771970284227
 40
0.0339589939358927
 40
0.0361555667882087
 40
0.0383616993106251
 40
0.0405774017163003
 40
0.0428026839619321
 40
0.045037555745232
 40
0.0472820265040306
 40
0.0495361054141645
 40
0.0517998013886114
 40
0.0540731230753609
 40
0.0563560788566655
 40
0.0586486768467455
 40
0.0609509248905865
 40
0.0632628305627975
 40
0.0655844011655977
 40
0.0679156437276695
 40
0.0702565650022835
 40
0.0726071714664188
 40
0.0749674693187097
 40
0.0773374644783923
 40
0.079717162583416
 40
0.0821065689893217
 40
0.0845056887677541
 40
0.0869145267048765
 40
0.0893330872998952
 40
0.091761374763779
 40
0.0941993930181792
 40
0.0966471456925797
 40
0.0991046361249774
 40
0.1015718673585047
 40
0.1040488421416096
 40
0.1065355629256643
 40
0.1090320318637847
 40
0.1115382508094682
 40
0.1140542213158155
 40
0.1165799446331684
 40
0.1191154217083288
 40
0.1216606531833087
 40
0.124215639393798
 40
0.1267803803679843
 40
0.1293548758249675
 40
0.1319391251737558
 40
0.1345331275117178
 40
0.1371368816238754
 40
0.1397503859807622
 40
0.1423736387380741
 40
0.1450066377347905
 40
0.1476493804919645
 40
0.1503018642121043
 40
0.1529640857772439
 40
0.1556360417483802
 40
0.1583177283638132
 40
0.1610091415382632
 40
0.1637102768614102
 40
0.1664211295972563
 40
0.1691416946829336
 40
0.1718719667268495
 40
0.1746119400084133
 40
0.1773616084769494
 40
0.180120965749957
 40
0.1828900051127982
 40
0.1856687195172494
 40
0.1884571015808381
 40
0.1912551435849131
 40
0.1940628374754461
 40
0.1968801748599385
 40
0.199707147008013
 40
0.2025437448501914
 40
0.2053899589762146
 40
0.2082457796350446
 40
0.2111111967335581
 40
0.213986199835997
 40
0.2168707781623684
 40
0.2197649205887375
 40
0.222668615645415
 40
0.2255818515165436
 40
0.2285046160395184
 40
0.2314368967042708
 40
0.2343786806518027
 40
0.2373299546744708
 40
0.2402907052145708
 40
0.2432609183641291
 40
0.2462405798633816
 40
0.2492296751017366
 40
0.2522281891154374
 40
0.2552361065878626
 40
0.2582534118491592
 40
0.2612800888750638
 40
0.2643161212865963
 40
0.267361492349705
 40
0.2704161849745223
 40
0.2734801817152246
 40
0.276553464769053
 40
0.2796360159766423
 40
0.2827278168205856
 40
0.2858288484263082
 40
0.2889390915604767
 40
0.2920585266316219
 40
0.2951871336890521
 40
0.2983248924230799
 40
0.3014717821646943
 40
0.3046277818847431
 40
0.307792870194871
 40
0.3109670253458934
 40
0.3141502252285774
 40
0.3173424473733467
 40
0.3205436689496634
 40
0.323753866766592
 40
0.3269730172723262
 40
0.3302010965537616
 40
0.3334380803374187
 40
0.3366839439885748
 40
0.339938662511596
 40
0.3432022105497715
 40
0.3464745623858548
 40
0.3497556919413366
 40
0.3530455727776184
 40
0.356344178095132
 40
0.3596514807337438
 40
0.3629674531735521
 40
0.3662920675342882
 40
0.3696252955758741
 40
0.3729671086988997
 40
0.3763174779444743
 40
0.3796763739946248
 40
0.3830437671730018
 40
0.3864196274447109
 40
0.3898039244172485
 40
0.3931966273400534
 40
0.3965977051059407
 40
0.4000071262510455
 40
0.4034248589549557
 40
0.4068508710419784
 40
0.4102851299811692
 40
0.4137276028872443
 40
0.4171782565203759
 40
0.420637057287828
 40
0.4241039712440877
 40
0.427578964091227
 40
0.4310620011804659
 40
0.4345530475119464
 40
0.4380520677359859
 40
0.4415590261540558
 40
0.4450738867183902
 40
0.4485966130344347
 40
0.452127168360867
 40
0.4556655156102961
 40
0.4592116173505149
 40
0.4627654358049525
 40
0.4663269328549224
 40
0.4698960700384592
 40
0.4734728085534513
 40
0.4770571092569372
 40
0.4806489326680399
 40
0.4842482389667695
 40
0.4878549879970434
 40
0.4914691392672362
 40
0.4950906519506574
 40
0.498719484888023
 40
0.502355596587187
 40
0.5059989452257421
 40
0.5096494886511495
 40
0.5133071843834749
 40
0.5169719896149556
 40
0.5206438612124501
 40
0.5243227557188572
 40
0.5280086293538868
 40
0.5317014380162057
 40
0.5354011372836763
 40
0.5391076824172479
 40
0.5428210283590921
 40
0.5465411297369742
 40
0.5502679408647353
 40
0.5540014157434334
 40
0.557741508063749
 40
0.5614881712074931
 40
0.5652413582483612
 40
0.569001021955115
 40
0.5727671147919923
 40
0.5765395889208258
 40
0.5803183962032942
 40
0.5841034882021343
 40
0.5878948161833589
 40
0.5916923311174369
 40
0.5954959836820802
 40
0.5993057242633989
 40
0.603121502957944
 40
0.6069432695748866
 40
0.6107709736380529
 40
0.6146045643872216
 40
0.6184439907809057
 40
0.6222892014979552
 40
0.6261401449400562
 40
0.629996769232912
 40
0.6338590222292089
 40
0.6377268515107171
 40
0.6416002043898049
 40
0.645479027912023
 40
0.6493632688587038
 40
0.653252873747946
 40
0.6571477888381606
 40
0.6610479601298596
 40
0.6649533333673121
 40
0.6688638540424928
 40
0.6727794673954505
 40
0.6767001184177248
 40
0.6806257518547442
 40
0.6845563122081116
 40
0.6884917437377818
 40
0.6924319904645801
 40
0.6963769961730699
 40
0.7003267044132537
 40
0.7042810585041414
 40
0.7082400015352426
 40
0.7122034763693202
 40
0.7161714256456599
 40
0.7201437917821714
 40
0.7241205169772362
 40
0.7281015432142146
 40
0.7320868122618776
 40
0.7360762656785677
 40
0.740069844814594
 40
0.7440674908146797
 40
0.7480691446207789
 40
0.7520747469745019
 40
0.7560842384203745
 40
0.7600975593088541
 40
0.7641146497980297
 40
0.7681354498572376
 40
0.7721598992702913
 40
0.7761879376366138
 40
0.7802195043761562
 40
0.784254538731295
 40
0.788292979769268
 40
0.7923347663857703
 40
0.7963798373080109
 40
0.8004281310967511
 40
0.8044795861506069
 40
0.8085341407073122
 40
0.8125917328484937
 40
0.816652300501092
 40
0.8207157814415215
 40
0.8247821132980367
 40
0.8288512335541205
 40
0.8329230795511763
 40
0.8363567881054075
 40
0.8363567881054075
 40
0.8363567881054075
 40
0.8363567881054075
 10
0.9684048228075831
 20
1.754298796335109
 30
0.0
 10
0.9677749229356043
 20
1.753994640164492
 30
0.0
 10
0.9663503474557028
 20
1.753308689900677
 30
0.0
 10
0.9641252495721565
 20
1.752243832237054
 30
0.0
 10
0.9617255290547571
 20
1.751103290844785
 30
0.0
 10
0.9593118538573424
 20
1.749963971537588
 30
0.0
 10
0.9568842091703537
 20
1.748825908269761
 30
0.0
 10
0.9544425832960991
 20
1.747689129445966
 30
0.0
 10
0.9519869641034296
 20
1.746553665015376
 30
0.0
 10
0.9495173399869462
 20
1.745419544557044
 30
0.0
 10
0.9470336996109365
 20
1.744286797795569
 30
0.0
 10
0.9445360319811624
 20
1.743155454461134
 30
0.0
 10
0.9420243264282833
 20
1.742025544326443
 30
0.0
 10
0.9394985726148957
 20
1.740897097195832
 30
0.0
 10
0.936958760536473
 20
1.739770142907386
 30
0.0
 10
0.9344048805238538
 20
1.738644711331513
 30
0.0
 10
0.9318369232452535
 20
1.73752083237042
 30
0.0
 10
0.9292548797084955
 20
1.736398535957389
 30
0.0
 10
0.9266587412628658
 20
1.735277852055967
 30
0.0
 10
0.9240484996017073
 20
1.734158810659439
 30
0.0
 10
0.9214241467642239
 20
1.733041441789964
 30
0.0
 10
0.9187856751378732
 20
1.731925775497958
 30
0.0
 10
0.9161330774601351
 20
1.730811841861202
 30
0.0
 10
0.9134663468210291
 20
1.729699670984268
 30
0.0
 10
0.9107854766649921
 20
1.728589292997661
 30
0.0
 10
0.9080904607932255
 20
1.72748073805716
 30
0.0
 10
0.9053812933655154
 20
1.726374036342927
 30
0.0
 10
0.9026579689026039
 20
1.725269218058846
 30
0.0
 10
0.8999204822881997
 20
1.724166313431702
 30
0.0
 10
0.8971688287711417
 20
1.723065352710419
 30
0.0
 10
0.8944030039674431
 20
1.721966366165246
 30
0.0
 10
0.8916230038623183
 20
1.720869384086928
 30
0.0
 10
0.8888288248124919
 20
1.719774436785987
 30
0.0
 10
0.886020463548067
 20
1.718681554591822
 30
0.0
 10
0.8831979171747315
 20
1.71759076785193
 30
0.0
 10
0.880361183175658
 20
1.716502106931024
 30
0.0
 10
0.877510259413787
 20
1.715415602210262
 30
0.0
 10
0.874645144133745
 20
1.714331284086364
 30
0.0
 10
0.8717658359639278
 20
1.713249182970759
 30
0.0
 10
0.8688723339184687
 20
1.712169329288704
 30
0.0
 10
0.8659646373993337
 20
1.711091753478434
 30
0.0
 10
0.8630427461983445
 20
1.710016485990288
 30
0.0
 10
0.8601066604989873
 20
1.708943557285742
 30
0.0
 10
0.857156380878775
 20
1.70787299783666
 30
0.0
 10
0.8541919083108184
 20
1.706804838124221
 30
0.0
 10
0.851213244166318
 20
1.705739108638208
 30
0.0
 10
0.8482203902158378
 20
1.70467583987583
 30
0.0
 10
0.8452133486318061
 20
1.703615062340992
 30
0.0
 10
0.8421921219901375
 20
1.702556806543249
 30
0.0
 10
0.8391567132724672
 20
1.701501102996962
 30
0.0
 10
0.8361071258677369
 20
1.700447982220229
 30
0.0
 10
0.8330433635742516
 20
1.699397474733982
 30
0.0
 10
0.8299654306015013
 20
1.698349611060992
 30
0.0
 10
0.8268733315721695
 20
1.697304421724932
 30
0.0
 10
0.8237670715238055
 20
1.696261937249326
 30
0.0
 10
0.8206466559106531
 20
1.695222188156555
 30
0.0
 10
0.8175120906056131
 20
1.694185204966892
 30
0.0
 10
0.8143633819019898
 20
1.693151018197468
 30
0.0
 10
0.8112005365153857
 20
1.692119658361287
 30
0.0
 10
0.8080235615852326
 20
1.691091155966103
 30
0.0
 10
0.8048324646767849
 20
1.690065541513474
 30
0.0
 10
0.8016272537826244
 20
1.689042845497626
 30
0.0
 10
0.7984079373246337
 20
1.688023098404482
 30
0.0
 10
0.7951745241555934
 20
1.687006330710563
 30
0.0
 10
0.7919270235608846
 20
1.685992572881917
 30
0.0
 10
0.788665445260206
 20
1.684981855373059
 30
0.0
 10
0.7853897994090266
 20
1.683974208625816
 30
0.0
 10
0.7821000966004619
 20
1.682969663068311
 30
0.0
 10
0.7787963478667171
 20
1.681968249113803
 30
0.0
 10
0.7754785646808953
 20
1.680969997159643
 30
0.0
 10
0.7721467589583881
 20
1.679974937586098
 30
0.0
 10
0.7688009430583804
 20
1.678983100755206
 30
0.0
 10
0.7654411297855258
 20
1.677994517009691
 30
0.0
 10
0.7620673323914594
 20
1.677009216671816
 30
0.0
 10
0.7586795645762737
 20
1.676027230042225
 30
0.0
 10
0.7552778404899341
 20
1.675048587398777
 30
0.0
 10
0.7518621747337166
 20
1.674073318995372
 30
0.0
 10
0.7484325823617863
 20
1.673101455060825
 30
0.0
 10
0.74498907888233
 20
1.672133025797609
 30
0.0
 10
0.7415316802593528
 20
1.671168061380789
 30
0.0
 10
0.7380604029135451
 20
1.67020659195668
 30
0.0
 10
0.7345752637241474
 20
1.669248647641808
 30
0.0
 10
0.7310762800297711
 20
1.668294258521556
 30
0.0
 10
0.7275634696300529
 20
1.667343454649049
 30
0.0
 10
0.7240368507867228
 20
1.666396266043893
 30
0.0
 10
0.7204964422249093
 20
1.665452722690945
 30
0.0
 10
0.7169422631344816
 20
1.664512854539128
 30
0.0
 10
0.7133743331709169
 20
1.663576691500094
 30
0.0
 10
0.7097926724568272
 20
1.662644263447082
 30
0.0
 10
0.7061973015828238
 20
1.66171560021358
 30
0.0
 10
0.7025882416089001
 20
1.660790731592144
 30
0.0
 10
0.6989655140653175
 20
1.659869687333078
 30
0.0
 10
0.6953291409538555
 20
1.658952497143204
 30
0.0
 10
0.6916791447485958
 20
1.658039190684523
 30
0.0
 10
0.6880155483971484
 20
1.657129797572994
 30
0.0
 10
0.6843383753215058
 20
1.656224347377196
 30
0.0
 10
0.6806476494191954
 20
1.655322869617099
 30
0.0
 10
0.6769433950638982
 20
1.65442539376267
 30
0.0
 10
0.6732256371068166
 20
1.6535319492327
 30
0.0
 10
0.6694944008770525
 20
1.652642565393351
 30
0.0
 10
0.6657497121828648
 20
1.651757271556958
 30
0.0
 10
0.6619915973121646
 20
1.650876096980621
 30
0.0
 10
0.6582200830335652
 20
1.649999070864939
 30
0.0
 10
0.6544351965969414
 20
1.649126222352638
 30
0.0
 10
0.6506369657342403
 20
1.648257580527248
 30
0.0
 10
0.6468254186602854
 20
1.647393174411793
 30
0.0
 10
0.6430005840733908
 20
1.646533032967422
 30
0.0
 10
0.6391624911559106
 20
1.645677185092051
 30
0.0
 10
0.6353111695750371
 20
1.644825659619041
 30
0.0
 10
0.631446649483154
 20
1.643978485315791
 30
0.0
 10
0.6275689615187227
 20
1.643135690882455
 30
0.0
 10
0.6236781368063951
 20
1.642297304950483
 30
0.0
 10
0.619774206957921
 20
1.641463356081338
 30
0.0
 10
0.6158572040721938
 20
1.640633872765042
 30
0.0
 10
0.6119271607361142
 20
1.639808883418888
 30
0.0
 10
0.6079841100246863
 20
1.638988416385992
 30
0.0
 10
0.6040280855015131
 20
1.638172499933945
 30
0.0
 10
0.6000591212191684
 20
1.637361162253427
 30
0.0
 10
0.5960772517192772
 20
1.636554431456774
 30
0.0
 10
0.592082512033127
 20
1.635752335576659
 30
0.0
 10
0.5880749376816123
 20
1.634954902564634
 30
0.0
 10
0.5840545646756913
 20
1.634162160289779
 30
0.0
 10
0.5800214295164127
 20
1.633374136537281
 30
0.0
 10
0.5759755691950347
 20
1.632590859007018
 30
0.0
 10
0.5719170211932126
 20
1.631812355312178
 30
0.0
 10
0.5678458234831049
 20
1.631038652977855
 30
0.0
 10
0.5637620145273226
 20
1.630269779439618
 30
0.0
 10
0.5596656332790436
 20
1.629505762042129
 30
0.0
 10
0.5555567191818009
 20
1.62874662803769
 30
0.0
 10
0.5514353121697303
 20
1.627992404584889
 30
0.0
 10
0.5473014526672174
 20
1.627243118747133
 30
0.0
 10
0.5431551815889883
 20
1.626498797491278
 30
0.0
 10
0.5389965403396348
 20
1.625759467686148
 30
0.0
 10
0.5348255708137307
 20
1.625025156101173
 30
0.0
 10
0.5306423153954736
 20
1.624295889404958
 30
0.0
 10
0.5264468169584763
 20
1.623571694163853
 30
0.0
 10
0.5222391188654408
 20
1.622852596840545
 30
0.0
 10
0.5180192649677615
 20
1.62213862379262
 30
0.0
 10
0.5137872996052602
 20
1.621429801271155
 30
0.0
 10
0.5095432676057285
 20
1.620726155419294
 30
0.0
 10
0.5052872142845346
 20
1.620027712270835
 30
0.0
 10
0.5010191854441279
 20
1.619334497748799
 30
0.0
 10
0.4967392273735518
 20
1.618646537664016
 30
0.0
 10
0.4924473868477224
 20
1.617963857713675
 30
0.0
 10
0.4881437111271967
 20
1.617286483479968
 30
0.0
 10
0.483828247957254
 20
1.61661444042861
 30
0.0
 10
0.4795010455673988
 20
1.615947753907454
 30
0.0
 10
0.4751621526706112
 20
1.615286449145065
 30
0.0
 10
0.4708116184626668
 20
1.614630551249302
 30
0.0
 10
0.466449492621416
 20
1.613980085205921
 30
0.0
 10
0.4620758253057298
 20
1.613335075877112
 30
0.0
 10
0.4576906671550672
 20
1.612695548000161
 30
0.0
 10
0.4532940692883559
 20
1.612061526185987
 30
0.0
 10
0.4488860833032056
 20
1.611433034917765
 30
0.0
 10
0.4444667612748689
 20
1.610810098549498
 30
0.0
 10
0.4400361557552419
 20
1.610192741304616
 30
0.0
 10
0.4355943197720023
 20
1.609580987274591
 30
0.0
 10
0.4311413068273727
 20
1.60897486041752
 30
0.0
 10
0.4266771708971259
 20
1.608374384556734
 30
0.0
 10
0.4222019664296583
 20
1.607779583379441
 30
0.0
 10
0.4177157483445526
 20
1.607190480435292
 30
0.0
 10
0.4132185720315433
 20
1.606607099135012
 30
0.0
 10
0.4087104933490174
 20
1.606029462748997
 30
0.0
 10
0.4041915686230175
 20
1.605457594405951
 30
0.0
 10
0.3996618546460635
 20
1.604891517091545
 30
0.0
 10
0.3951214086753057
 20
1.604331253646962
 30
0.0
 10
0.3905702884317085
 20
1.603776826767614
 30
0.0
 10
0.3860085520980883
 20
1.603228259001702
 30
0.0
 10
0.3814362583184029
 20
1.602685572748952
 30
0.0
 10
0.3768534661952979
 20
1.60214879025913
 30
0.0
 10
0.3722602352894888
 20
1.601617933630821
 30
0.0
 10
0.367656625617558
 20
1.601093024809984
 30
0.0
 10
0.3630426976507646
 20
1.600574085588672
 30
0.0
 10
0.3584185123131334
 20
1.600061137603661
 30
0.0
 10
0.35378413097978
 20
1.599554202335111
 30
0.0
 10
0.3491396154755803
 20
1.599053301105299
 30
0.0
 10
0.3444850280729275
 20
1.598558455077216
 30
0.0
 10
0.3398204314904947
 20
1.598069685253341
 30
0.0
 10
0.335145888890702
 20
1.597587012474226
 30
0.0
 10
0.330461463878484
 20
1.597110457417283
 30
0.0
 10
0.3257672204990578
 20
1.596640040595436
 30
0.0
 10
0.3210632232362576
 20
1.596175782355857
 30
0.0
 10
0.3163495370103442
 20
1.595717702878664
 30
0.0
 10
0.3116262271759494
 20
1.595265822175631
 30
0.0
 10
0.3068933595205169
 20
1.594820160088967
 30
0.0
 10
0.3021510002614095
 20
1.594380736289964
 30
0.0
 10
0.2973992160447271
 20
1.593947570277837
 30
0.0
 10
0.2926380739423545
 20
1.593520681378388
 30
0.0
 10
0.2878676414504671
 20
1.593100088742827
 30
0.0
 10
0.2830879864867454
 20
1.592685811346487
 30
0.0
 10
0.2782991773884299
 20
1.592277867987617
 30
0.0
 10
0.2735012829099337
 20
1.591876277286152
 30
0.0
 10
0.2686943722206181
 20
1.591481057682511
 30
0.0
 10
0.2638785149022364
 20
1.591092227436371
 30
0.0
 10
0.2590537809468392
 20
1.590709804625494
 30
0.0
 10
0.2542202407541002
 20
1.590333807144518
 30
0.0
 10
0.249377965129033
 20
1.589964252703785
 30
0.0
 10
0.2445270252793643
 20
1.58960115882817
 30
0.0
 10
0.2396674928128626
 20
1.589244542855886
 30
0.0
 10
0.2347994397351203
 20
1.588894421937375
 30
0.0
 10
0.2299229384466639
 20
1.588550813034131
 30
0.0
 10
0.2250380617405125
 20
1.588213732917571
 30
0.0
 10
0.2201448827993672
 20
1.587883198167908
 30
0.0
 10
0.2152434751930591
 20
1.587559225173032
 30
0.0
 10
0.2103339128756151
 20
1.587241830127396
 30
0.0
 10
0.2054162701826444
 20
1.586931029030915
 30
0.0
 10
0.2004906218284623
 20
1.586626837687884
 30
0.0
 10
0.1955570429033988
 20
1.586329271705897
 30
0.0
 10
0.1906156088705885
 20
1.58603834649476
 30
0.0
 10
0.185666395563446
 20
1.58575407726545
 30
0.0
 10
0.1807094791825541
 20
1.585476479029061
 30
0.0
 10
0.1757449362927206
 20
1.585205566595757
 30
0.0
 10
0.1707728438198917
 20
1.584941354573744
 30
0.0
 10
0.1657932790482243
 20
1.584683857368258
 30
0.0
 10
0.1608063196169463
 20
1.584433089180548
 30
0.0
 10
0.1558120435174392
 20
1.584189064006895
 30
0.0
 10
0.1508105290899074
 20
1.58395179563761
 30
0.0
 10
0.1458018550203941
 20
1.583721297656069
 30
0.0
 10
0.1407861003375048
 20
1.58349758343775
 30
0.0
 10
0.1357633444089623
 20
1.583280666149264
 30
0.0
 10
0.1307336669387595
 20
1.583070558747438
 30
0.0
 10
0.1256971479635657
 20
1.582867273978373
 30
0.0
 10
0.1206538678497888
 20
1.582670824376535
 30
0.0
 10
0.1156039072898171
 20
1.582481222263842
 30
0.0
 10
0.11054734729879
 20
1.58229847974877
 30
0.0
 10
0.1054842692113152
 20
1.582122608725482
 30
0.0
 10
0.100414754677936
 20
1.581953620872949
 30
0.0
 10
0.0953388856617982
 20
1.581791527654102
 30
0.0
 10
0.0902567444348704
 20
1.581636340314976
 30
0.0
 10
0.0851684135747469
 20
1.581488069883891
 30
0.0
 10
0.0800739759610027
 20
1.58134672717063
 30
0.0
 10
0.0749735147716712
 20
1.581212322765628
 30
0.0
 10
0.0698671134794633
 20
1.58108486703918
 30
0.0
 10
0.0647548558483691
 20
1.580964370140669
 30
0.0
 10
0.0596368259297316
 20
1.580850841997778
 30
0.0
 10
0.054513108059033
 20
1.580744292315769
 30
0.0
 10
0.0493837868516873
 20
1.58064473057671
 30
0.0
 10
0.0442489471997394
 20
1.580552166038765
 30
0.0
 10
0.0391086742676956
 20
1.580466607735477
 30
0.0
 10
0.033963053488933
 20
1.580388064475061
 30
0.0
 10
0.0288121705620913
 20
1.580316544839731
 30
0.0
 10
0.023656111447117
 20
1.580252057185013
 30
0.0
 10
0.0184949623612215
 20
1.580194609639095
 30
0.0
 10
0.0133288097751477
 20
1.580144210102174
 30
0.0
 10
0.0081577404092847
 20
1.580100866245834
 30
0.0
 10
0.0029818412296873
 20
1.580064585512419
 30
0.0
 10
-0.00219880055566
 20
1.58003537511444
 30
0.0
 10
-0.0073840975011386
 20
1.58001324203398
 30
0.0
 10
-0.0125739619272229
 20
1.579998193022119
 30
0.0
 10
-0.0177683059247649
 20
1.579990234598377
 30
0.0
 10
-0.0229670413587143
 20
1.579989373050168
 30
0.0
 10
-0.0281700798723345
 20
1.579995614432268
 30
0.0
 10
-0.0333773328912516
 20
1.580008964566302
 30
0.0
 10
-0.0385887116278048
 20
1.580029429040235
 30
0.0
 10
-0.0438041270846294
 20
1.580057013207897
 30
0.0
 10
-0.0490234900594138
 20
1.580091722188498
 30
0.0
 10
-0.0542467111484218
 20
1.580133560866182
 30
0.0
 10
-0.059473700751256
 20
1.580182533889578
 30
0.0
 10
-0.0647043690745937
 20
1.580238645671378
 30
0.0
 10
-0.0699386261367588
 20
1.580301900387919
 30
0.0
 10
-0.0751763817716746
 20
1.580372301978796
 30
0.0
 10
-0.0801426042351462
 20
1.58044578590858
 30
0.0
 10
-0.0833628704168101
 20
1.580497454839645
 30
0.0
 10
-0.0848360927730896
 20
1.580521932954162
 30
0.0
  0
SPLINE
  5
6C
330
1F
100
AcDbEntity
  8
0
  6
Continuous
 62
     7
370
    25
100
AcDbSpline
210
0.0
220
0.0
230
1.0
 70
     8
 71
     3
 72
    15
 73
    11
 74
     0
 42
0.00000001
 43
0.00000001
 40
0.0
 40
0.0
 40
0.0
 40
0.0
 40
0.0851356770960821
 40
0.1628333973006971
 40
0.2337233181160315
 40
0.298634172056179
 40
0.4145353315824941
 40
0.5212793004628259
 40
0.722139807129247
 40
1.0
 40
1.0
 40
1.0
 40
1.0
 10
1.010631160583876
 20
1.731627927117811
 30
0.0
 10
1.010512866649813
 20
1.73338359766595
 30
0.0
 10
1.010286613640257
 20
1.736741552986743
 30
0.0
 10
1.009488728735604
 20
1.741511404785785
 30
0.0
 10
1.008354419712513
 20
1.745783592482053
 30
0.0
 10
1.006438827847254
 20
1.75062286610885
 30
0.0
 10
1.003105016768256
 20
1.755695038724588
 30
0.0
 10
0.9955521719699588
 20
1.760629026210181
 30
0.0
 10
0.9827224297560966
 20
1.760717458615095
 30
0.0
 10
0.9736630748457902
 20
1.756656099797002
 30
0.0
 10
0.9684048227896419
 20
1.754298796372263
 30
0.0
  0
SPLINE
  5
6F
330
1F
100
AcDbEntity
  8
0
  6
HIDDEN
 62
     7
370
    18
100
AcDbSpline
210
0.0
220
0.0
230
1.0
 70
     8
 71
     3
 72
     8
 73
     4
 74
     0
 42
0.00000001
 43
0.00000001
 40
0.0
 40
0.0
 40
0.0
 40
0.0
 40
1.0
 40
1.0
 40
1.0
 40
1.0
 10
0.9679836550764022
 20
1.754095561523385
 30
0.0
 10
0.9681240601090172
 20
1.754163273784567
 30
0.0
 10
0.9682644523625378
 20
1.75423101248584
 30
0.0
 10
0.9684048360540016
 20
1.754298768902106
 30
0.0
  0
LINE
  5
70
330
1F
100
AcDbEntity
  8
0
  6
Continuous
 62
     7
370
    25
100
AcDbLine
 10
0.7164181056
 20
-0.2219123654
 30
0.0
 11
1.0007168487
 21
0.6959128607
 31
0.0
  0
LINE
  5
71
330
1F
100
AcDbEntity
  8
0
  6
Continuous
 62
     7
370
    25
100
AcDbLine
 10
-1.014743137
 20
0.7684745824
 30
0.0
 11
-0.718132799
 21
-0.2162990592
 31
0.0
  0
LINE
  5
72
330
1F
100
AcDbEntity
  8
0
  6
Continuous
 62
     7
370
    25
100
AcDbLine
 10
-1.0174708004
 20
1.78799241
 30
0.0
 11
-1.0556363746
 21
1.1133549987
 31
0.0
  0
LINE
  5
73
330
1F
100
AcDbEntity
  8
0
  6
Continuous
 62
     7
370
    25
100
AcDbLine
 10
1.0443077829
 20
1.0404626958
 30
0.0
 11
1.0106311606
 21
1.7316279271
 31
0.0
  0
ARC
  5
74
330
1F
100
AcDbEntity
  8
0
  6
Continuous
 62
     7
370
    25
100
AcDbCircle
 10
0.0
 20
0.0
 30
0.0
 40
0.7500000000000003
100
AcDbArc
 50
196.7621155213
 51
342.789497309
  0
ARC
  5
75
330
1F
100
AcDbEntity
  8
0
  6
Continuous
 62
     7
370
    25
100
AcDbCircle
 10
-0.0572327384
 20
1.0568733281
 30
0.0
 40
1.000000000000004
100
AcDbArc
 50
176.7621155213
 51
196.7621155213
  0
ARC
  5
76
330
1F
100
AcDbEntity
  8
0
  6
Continuous
 62
     7
370
    25
100
AcDbCircle
 10
0.0454927078
 20
0.9917960145
 30
0.0
 40
0.9999999999999967
100
AcDbArc
 50
342.789497309
 51
2.789497309
  0
MTEXT
  5
78
330
1F
100
AcDbEntity
  8
0
  6
Continuous
 62
     7
100
AcDbMText
 10
-1.0572327384
 20
-0.7901404091
 30
0.0
 40
0.1903
 41
0.0
 71
     1
 72
     1
  1
SOLIDWORKS Educational Product.
  7
SLDTEXTSTYLE0
 73
     1
 44
1.0
  0
MTEXT
  5
79
330
1F
100
AcDbEntity
  8
0
  6
Continuous
 62
     7
100
AcDbMText
 10
-1.0572327384
 20
-1.0755904091
 30
0.0
 40
0.1903
 41
0.0
 71
     1
 72
     1
  1
For Instructional Use Only.
  7
SLDTEXTSTYLE0
 73
     1
 44
1.0
  0
ENDSEC
  0
SECTION
  2
OBJECTS
  0
DICTIONARY
  5
C
330
0
100
AcDbDictionary
281
     1
  3
ACAD_GROUP
350
D
  3
ACAD_LAYOUT
350
1A
  3
ACAD_MLINESTYLE
350
17
  3
ACAD_PLOTSETTINGS
350
19
  3
ACAD_PLOTSTYLENAME
350
E
  3
ACAD_SCALELIST
350
47
  3
DWGPROPS
350
7A
  0
DICTIONARY
  5
D
102
{ACAD_REACTORS
330
C
102
}
330
C
100
AcDbDictionary
281
     1
  0
DICTIONARY
  5
1A
102
{ACAD_REACTORS
330
C
102
}
330
C
100
AcDbDictionary
281
     1
  3
Layout1
350
1E
  3
Layout2
350
26
  3
Model
350
22
  0
DICTIONARY
  5
17
102
{ACAD_REACTORS
330
C
102
}
330
C
100
AcDbDictionary
281
     1
  3
Standard
350
18
  0
DICTIONARY
  5
19
102
{ACAD_REACTORS
330
C
102
}
330
C
100
AcDbDictionary
281
     1
  0
ACDBDICTIONARYWDFLT
  5
E
102
{ACAD_REACTORS
330
C
102
}
330
C
100
AcDbDictionary
281
     1
  3
Normal
350
F
100
AcDbDictionaryWithDefault
340
F
  0
DICTIONARY
  5
47
102
{ACAD_REACTORS
330
C
102
}
330
C
100
AcDbDictionary
281
     1
  3
A0
350
48
  3
A1
350
49
  3
A2
350
4A
  3
A3
350
4B
  3
A4
350
4C
  3
A5
350
4D
  3
A6
350
4E
  3
A7
350
4F
  3
A8
350
50
  3
A9
350
51
  3
B1
350
52
  3
B2
350
53
  3
B3
350
54
  3
B4
350
55
  3
B5
350
56
  3
B6
350
57
  3
B7
350
58
  0
XRECORD
  5
7A
102
{ACAD_REACTORS
330
C
102
}
330
C
100
AcDbXrecord
280
     1
  1
DWGPROPS COOKIE
  2

  3

  4

  6

  7

  8
sammy
  9

300
=
301
=
302
=
303
=
304
=
305
=
306
=
307
=
308
=
309
=
 40
0.0
 41
2460733.099533415
 42
2460733.099559965
  1

 90
        0
  0
LAYOUT
  5
1E
102
{ACAD_REACTORS
330
1A
102
}
330
1A
100
AcDbPlotSettings
  1

  2
none_device
  4

  6

 40
0.0
 41
0.0
 42
0.0
 43
0.0
 44
0.0
 45
0.0
 46
0.0
 47
0.0
 48
0.0
 49
0.0
140
0.0
141
0.0
142
1.0
143
1.0
 70
   688
 72
     0
 73
     0
 74
     5
  7

 75
    16
147
1.0
148
0.0
149
0.0
100
AcDbLayout
  1
Layout1
 70
     1
 71
     1
 10
0.0
 20
0.0
 11
12.0
 21
9.0
 12
0.0
 22
0.0
 32
0.0
 14
1.0000000000E+20
 24
1.0000000000E+20
 34
1.0000000000E+20
 15
-1.0000000000E+20
 25
-1.0000000000E+20
 35
-1.0000000000E+20
146
0.0
 13
0.0
 23
0.0
 33
0.0
 16
1.0
 26
0.0
 36
0.0
 17
0.0
 27
1.0
 37
0.0
 76
     0
330
1B
  0
LAYOUT
  5
26
102
{ACAD_REACTORS
330
1A
102
}
330
1A
100
AcDbPlotSettings
  1

  2
none_device
  4

  6

 40
0.0
 41
0.0
 42
0.0
 43
0.0
 44
0.0
 45
0.0
 46
0.0
 47
0.0
 48
0.0
 49
0.0
140
0.0
141
0.0
142
1.0
143
1.0
 70
   688
 72
     0
 73
     0
 74
     5
  7

 75
    16
147
1.0
148
0.0
149
0.0
100
AcDbLayout
  1
Layout2
 70
     1
 71
     2
 10
0.0
 20
0.0
 11
0.0
 21
0.0
 12
0.0
 22
0.0
 32
0.0
 14
0.0
 24
0.0
 34
0.0
 15
0.0
 25
0.0
 35
0.0
146
0.0
 13
0.0
 23
0.0
 33
0.0
 16
1.0
 26
0.0
 36
0.0
 17
0.0
 27
1.0
 37
0.0
 76
     0
330
23
  0
LAYOUT
  5
22
102
{ACAD_REACTORS
330
1A
102
}
330
1A
100
AcDbPlotSettings
  1

  2
none_device
  4
ANSI_A_(11.00_x_8.50_Inches)
  6

 40
6.35
 41
19.05
 42
6.35000508
 43
19.05000254
 44
279.4
 45
215.9
 46
133.8370368996
 47
44.2575446656
 48
0.0
 49
0.0
140
0.0
141
0.0
142
3.2665640911
143
1.0
 70
  1696
 72
     0
 73
     0
 74
     0
  7

 75
     0
147
0.5913241897
148
-39.4088153714
149
0.0
100
AcDbLayout
  1
Model
 70
     1
 71
     0
 10
0.0
 20
0.0
 11
12.0
 21
9.0
 12
0.0
 22
0.0
 32
0.0
 14
-1.0572327384
 24
-0.75
 34
0.0
 15
1.0454927078
 25
1.8261012995
 35
0.0
146
0.0
 13
0.0
 23
0.0
 33
0.0
 16
1.0
 26
0.0
 36
0.0
 17
0.0
 27
1.0
 37
0.0
 76
     0
330
1F
331
29
  0
MLINESTYLE
  5
18
102
{ACAD_REACTORS
330
17
102
}
330
17
100
AcDbMlineStyle
  2
Standard
 70
     0
  3

 62
   256
 51
90.0
 52
90.0
 71
     2
 49
0.5
 62
   256
  6
BYLAYER
 49
-0.5
 62
   256
  6
BYLAYER
  0
ACDBPLACEHOLDER
  5
F
102
{ACAD_REACTORS
330
E
102
}
330
E
  0
SCALE
  5
48
102
{ACAD_REACTORS
330
47
102
}
330
47
100
AcDbScale
 70
     0
300
1:1
140
1.0
141
1.0
290
     1
  0
SCALE
  5
49
102
{ACAD_REACTORS
330
47
102
}
330
47
100
AcDbScale
 70
     0
300
1/128" = 1'-0"
140
0.0078125
141
12.0
290
     0
  0
SCALE
  5
4A
102
{ACAD_REACTORS
330
47
102
}
330
47
100
AcDbScale
 70
     0
300
1/64" = 1'-0"
140
0.015625
141
12.0
290
     0
  0
SCALE
  5
4B
102
{ACAD_REACTORS
330
47
102
}
330
47
100
AcDbScale
 70
     0
300
1/32" = 1'-0"
140
0.03125
141
12.0
290
     0
  0
SCALE
  5
4C
102
{ACAD_REACTORS
330
47
102
}
330
47
100
AcDbScale
 70
     0
300
1/16" = 1'-0"
140
0.0625
141
12.0
290
     0
  0
SCALE
  5
4D
102
{ACAD_REACTORS
330
47
102
}
330
47
100
AcDbScale
 70
     0
300
3/32" = 1'-0"
140
0.09375
141
12.0
290
     0
  0
SCALE
  5
4E
102
{ACAD_REACTORS
330
47
102
}
330
47
100
AcDbScale
 70
     0
300
1/8" = 1'-0"
140
0.125
141
12.0
290
     0
  0
SCALE
  5
4F
102
{ACAD_REACTORS
330
47
102
}
330
47
100
AcDbScale
 70
     0
300
3/16" = 1'-0"
140
0.1875
141
12.0
290
     0
  0
SCALE
  5
50
102
{ACAD_REACTORS
330
47
102
}
330
47
100
AcDbScale
 70
     0
300
1/4" = 1'-0"
140
0.25
141
12.0
290
     0
  0
SCALE
  5
51
102
{ACAD_REACTORS
330
47
102
}
330
47
100
AcDbScale
 70
     0
300
3/8" = 1'-0"
140
0.375
141
12.0
290
     0
  0
SCALE
  5
52
102
{ACAD_REACTORS
330
47
102
}
330
47
100
AcDbScale
 70
     0
300
1/2" = 1'-0"
140
0.5
141
12.0
290
     0
  0
SCALE
  5
53
102
{ACAD_REACTORS
330
47
102
}
330
47
100
AcDbScale
 70
     0
300
3/4" = 1'-0"
140
0.75
141
12.0
290
     0
  0
SCALE
  5
54
102
{ACAD_REACTORS
330
47
102
}
330
47
100
AcDbScale
 70
     0
300
1" = 1'-0"
140
1.0
141
12.0
290
     0
  0
SCALE
  5
55
102
{ACAD_REACTORS
330
47
102
}
330
47
100
AcDbScale
 70
     0
300
1-1/2" = 1'-0"
140
1.5
141
12.0
290
     0
  0
SCALE
  5
56
102
{ACAD_REACTORS
330
47
102
}
330
47
100
AcDbScale
 70
     0
300
3" = 1'-0"
140
3.0
141
12.0
290
     0
  0
SCALE
  5
57
102
{ACAD_REACTORS
330
47
102
}
330
47
100
AcDbScale
 70
     0
300
6" = 1'-0"
140
6.0
141
12.0
290
     0
  0
SCALE
  5
58
102
{ACAD_REACTORS
330
47
102
}
330
47
100
AcDbScale
 70
     0
300
1'-0" = 1'-0"
140
12.0
141
12.0
290
     0
  0
ENDSEC
  0
EOF
